<svg width="36" height="51" viewBox="0 0 36 51" fill="none" xmlns="http://www.w3.org/2000/svg">
<g id="Group 15">
<g id="color_x5F_1_1_">
<path d="M32.7068 30.1964C30.9344 26.3682 27.8625 23.7314 24.6107 20.9402C20.755 17.6307 16.7682 14.2087 14.88 8.61856C14.1994 6.60399 13.8956 4.45059 13.8663 2.2841C10.2135 9.44176 5.65894 19.6104 4.76548 27.3276C3.9636 34.254 6.8783 41.428 12.9155 45.3464C18.222 48.7904 27.1511 49.2864 31.3676 43.9486C31.7216 43.5006 32.0424 43.0115 32.3249 42.4795C34.3229 38.7181 34.4977 34.0638 32.7068 30.1964ZM26.9633 42.529C28.6385 36.854 26.9249 30.3522 22.6514 26.1699C26.2095 26.8068 29.2674 29.5868 30.1681 33.0041C31.0689 36.4215 29.765 40.2963 26.9633 42.529Z" fill="#08BAE8"/>
<path d="M26.9633 42.529C28.6385 36.854 26.9249 30.3522 22.6514 26.1699C26.2095 26.8068 29.2674 29.5868 30.1681 33.0041C31.0689 36.4215 29.765 40.2963 26.9633 42.529Z" fill="#08BAE8"/>
</g>
<path id="Vector" d="M25.358 26.5967C25.2316 26.5314 25.1085 26.4598 24.9892 26.3821C24.6424 26.1528 24.3244 25.8826 24.0421 25.5774C23.3357 24.7692 23.0719 23.9492 22.9747 23.3751H22.9786C22.8975 22.8986 22.931 22.5903 22.9361 22.5903H19.7188V35.031C19.7188 35.1981 19.7188 35.3632 19.7118 35.5263C19.7118 35.5466 19.7098 35.5653 19.7086 35.5872C19.7086 35.5961 19.7086 35.6055 19.7067 35.6149V35.6219C19.6728 36.0683 19.5297 36.4995 19.29 36.8776C19.0503 37.2556 18.7214 37.569 18.3322 37.7902C17.9265 38.021 17.4677 38.142 17.001 38.1414C15.502 38.1414 14.2871 36.9191 14.2871 35.4096C14.2871 33.9001 15.502 32.6778 17.001 32.6778C17.2848 32.6775 17.5668 32.7222 17.8366 32.8101L17.8405 29.5342C17.0214 29.4284 16.1894 29.4935 15.3968 29.7254C14.6042 29.9573 13.8683 30.3509 13.2354 30.8814C12.6809 31.3632 12.2147 31.9381 11.8578 32.5802C11.722 32.8144 11.2096 33.7553 11.1475 35.2824C11.1085 36.1491 11.3688 37.0471 11.4929 37.4183V37.4261C11.5709 37.6446 11.8734 38.3904 12.3663 39.0191C12.7637 39.5234 13.2333 39.9664 13.7599 40.3339V40.3261L13.7677 40.3339C15.3252 41.3923 17.0521 41.3228 17.0521 41.3228C17.3511 41.3107 18.3525 41.3228 19.4897 40.7839C20.751 40.1864 21.4691 39.2962 21.4691 39.2962C21.9278 38.7643 22.2926 38.1581 22.5478 37.5037C22.8389 36.7384 22.9361 35.8205 22.9361 35.4537V28.8536C22.9751 28.877 23.4949 29.2209 23.4949 29.2209C23.4949 29.2209 24.2438 29.7009 25.4123 30.0135C26.2506 30.2359 27.38 30.2827 27.38 30.2827V27.0889C26.9843 27.1318 26.1807 27.0069 25.358 26.5967Z" fill="white"/>
</g>
</svg>
