<svg width="37" height="51" viewBox="0 0 37 51" fill="none" xmlns="http://www.w3.org/2000/svg">
<g id="Group 19">
<g id="color_x5F_1_1_">
<path d="M33.2908 30.1964C31.5184 26.3682 28.4465 23.7314 25.1947 20.9402C21.339 17.6307 17.3522 14.2087 15.464 8.61856C14.7834 6.60399 14.4796 4.45059 14.4502 2.2841C10.7974 9.44176 6.24293 19.6104 5.34947 27.3276C4.54759 34.254 7.46228 41.428 13.4995 45.3464C18.806 48.7904 27.7351 49.2864 31.9516 43.9486C32.3056 43.5006 32.6264 43.0115 32.9089 42.4795C34.9069 38.7181 35.0817 34.0638 33.2908 30.1964ZM27.5473 42.529C29.2225 36.854 27.5089 30.3522 23.2354 26.1699C26.7935 26.8068 29.8514 29.5868 30.752 33.0041C31.6529 36.4215 30.349 40.2963 27.5473 42.529Z" fill="#08BAE8"/>
<path d="M27.5473 42.529C29.2225 36.854 27.5089 30.3522 23.2354 26.1699C26.7935 26.8068 29.8514 29.5868 30.752 33.0041C31.6529 36.4215 30.349 40.2963 27.5473 42.529Z" fill="#08BAE8"/>
</g>
<path id="Vector" d="M23.0598 25.7582C24.0635 25.7612 25.0254 26.1613 25.7352 26.8711C26.445 27.5809 26.845 28.5427 26.848 29.5465V37.1223C26.845 38.126 26.445 39.0879 25.7352 39.7977C25.0254 40.5075 24.0635 40.9075 23.0598 40.9105H15.484C14.4802 40.9075 13.5184 40.5075 12.8086 39.7977C12.0988 39.0879 11.6987 38.126 11.6957 37.1223V29.5465C11.6987 28.5427 12.0988 27.5809 12.8086 26.8711C13.5184 26.1613 14.4802 25.7612 15.484 25.7582H23.0598ZM23.0598 24.2432H15.484C12.5671 24.2432 10.1807 26.6296 10.1807 29.5465V37.1223C10.1807 40.0392 12.5671 42.4256 15.484 42.4256H23.0598C25.9767 42.4256 28.3631 40.0392 28.3631 37.1223V29.5465C28.3631 26.6296 25.9767 24.2432 23.0598 24.2432Z" fill="white"/>
<path id="Vector_2" d="M24.1964 29.5465C23.9717 29.5465 23.752 29.4798 23.5651 29.355C23.3782 29.2301 23.2326 29.0526 23.1465 28.845C23.0605 28.6373 23.038 28.4088 23.0819 28.1884C23.1257 27.9679 23.234 27.7655 23.3929 27.6065C23.5518 27.4476 23.7543 27.3394 23.9747 27.2955C24.1952 27.2517 24.4237 27.2742 24.6313 27.3602C24.839 27.4462 25.0165 27.5919 25.1413 27.7787C25.2662 27.9656 25.3328 28.1853 25.3328 28.4101C25.3332 28.5594 25.304 28.7073 25.247 28.8453C25.19 28.9834 25.1063 29.1088 25.0007 29.2144C24.8951 29.3199 24.7697 29.4036 24.6317 29.4606C24.4937 29.5176 24.3458 29.5468 24.1964 29.5465ZM19.2722 30.3038C19.8716 30.3038 20.4575 30.4816 20.9559 30.8146C21.4542 31.1476 21.8427 31.6209 22.072 32.1746C22.3014 32.7284 22.3614 33.3377 22.2445 33.9256C22.1275 34.5135 21.8389 35.0534 21.4151 35.4773C20.9913 35.9011 20.4513 36.1897 19.8634 36.3067C19.2755 36.4236 18.6662 36.3636 18.1124 36.1342C17.5587 35.9048 17.0854 35.5164 16.7524 35.018C16.4194 34.5197 16.2416 33.9337 16.2416 33.3344C16.2425 32.5309 16.5621 31.7605 17.1302 31.1924C17.6984 30.6242 18.4687 30.3047 19.2722 30.3038ZM19.2722 28.7887C18.3731 28.7887 17.4943 29.0553 16.7468 29.5548C15.9992 30.0543 15.4166 30.7642 15.0726 31.5948C14.7285 32.4254 14.6385 33.3394 14.8139 34.2212C14.9893 35.1029 15.4222 35.9129 16.0579 36.5486C16.6937 37.1843 17.5036 37.6172 18.3854 37.7926C19.2671 37.968 20.1811 37.878 21.0117 37.534C21.8423 37.1899 22.5522 36.6073 23.0517 35.8598C23.5512 35.1122 23.8178 34.2334 23.8178 33.3344C23.8178 32.1288 23.3389 30.9726 22.4864 30.1201C21.6339 29.2677 20.4777 28.7887 19.2722 28.7887Z" fill="white"/>
</g>
</svg>
