<svg width="37" height="51" viewBox="0 0 37 51" fill="none" xmlns="http://www.w3.org/2000/svg">
<g id="Group 17">
<g id="color_x5F_1_1_">
<path d="M32.9988 30.1964C31.2264 26.3682 28.1545 23.7314 24.9027 20.9402C21.047 17.6307 17.0602 14.2087 15.172 8.61856C14.4914 6.60399 14.1876 4.45059 14.1583 2.2841C10.5055 9.44176 5.95093 19.6104 5.05747 27.3276C4.25559 34.254 7.17029 41.428 13.2075 45.3464C18.514 48.7904 27.4431 49.2864 31.6596 43.9486C32.0136 43.5006 32.3344 43.0115 32.6169 42.4795C34.6149 38.7181 34.7897 34.0638 32.9988 30.1964ZM27.2553 42.529C28.9305 36.854 27.2169 30.3522 22.9434 26.1699C26.5015 26.8068 29.5594 29.5868 30.4601 33.0041C31.3609 36.4215 30.057 40.2963 27.2553 42.529Z" fill="#08BAE8"/>
<path d="M27.2553 42.529C28.9305 36.854 27.2169 30.3522 22.9434 26.1699C26.5015 26.8068 29.5594 29.5868 30.4601 33.0041C31.3609 36.4215 30.057 40.2963 27.2553 42.529Z" fill="#08BAE8"/>
</g>
<path id="Vector" d="M28.947 30.101C28.947 28.4543 27.7358 27.1297 26.2391 27.1297C24.2119 27.0349 22.1443 26.9983 20.0314 26.9983H19.3728C17.265 26.9983 15.1938 27.0349 13.1665 27.13C11.6735 27.13 10.4623 28.462 10.4623 30.1087C10.3708 31.4111 10.332 32.7138 10.3342 34.0165C10.3305 35.3192 10.372 36.6232 10.4586 37.9284C10.4586 39.5751 11.6699 40.9107 13.1629 40.9107C15.2926 41.0095 17.4772 41.0534 19.6984 41.0498C21.9233 41.0571 24.1018 41.0107 26.234 40.9107C27.7307 40.9107 28.9419 39.5751 28.9419 37.9284C29.0297 36.622 29.07 35.3192 29.0663 34.0129C29.0746 32.7101 29.0349 31.4062 28.947 30.101ZM17.909 37.6063V30.4157L23.2151 34.0092L17.909 37.6063Z" fill="white"/>
</g>
</svg>
