<svg width="37" height="51" viewBox="0 0 37 51" fill="none" xmlns="http://www.w3.org/2000/svg">
<g id="Group 22">
<g id="color_x5F_1_1_">
<path d="M33.4148 30.1964C31.6424 26.3682 28.5705 23.7314 25.3187 20.9402C21.463 17.6307 17.4762 14.2087 15.588 8.61856C14.9074 6.60399 14.6036 4.45059 14.5743 2.2841C10.9215 9.44176 6.36695 19.6104 5.47349 27.3276C4.67161 34.254 7.58631 41.428 13.6236 45.3464C18.93 48.7904 27.8591 49.2864 32.0756 43.9486C32.4296 43.5006 32.7504 43.0115 33.033 42.4795C35.0309 38.7181 35.2057 34.0638 33.4148 30.1964ZM27.6713 42.529C29.3465 36.854 27.6329 30.3522 23.3594 26.1699C26.9176 26.8068 29.9754 29.5868 30.8761 33.0041C31.7769 36.4215 30.473 40.2963 27.6713 42.529Z" fill="#08BAE8"/>
<path d="M27.6713 42.529C29.3465 36.854 27.6329 30.3522 23.3594 26.1699C26.9176 26.8068 29.9754 29.5868 30.8761 33.0041C31.7769 36.4215 30.473 40.2963 27.6713 42.529Z" fill="#08BAE8"/>
</g>
<path id="Vector" d="M25.687 28.3573V27.8798C25.6859 27.5002 25.5346 27.1365 25.2662 26.8681C24.9977 26.5997 24.634 26.4484 24.2544 26.4473H14.704C14.3244 26.4484 13.9607 26.5997 13.6923 26.8681C13.4239 27.1365 13.2726 27.5002 13.2715 27.8798V35.5201C13.2726 35.8997 13.4239 36.2635 13.6923 36.5319C13.9607 36.8003 14.3244 36.9516 14.704 36.9527H15.1816" stroke="white" stroke-width="1.3" stroke-linejoin="round"/>
<path id="Vector_2" d="M26.2246 28.835H17.0317C16.2737 28.835 15.6592 29.4495 15.6592 30.2075V37.4903C15.6592 38.2483 16.2737 38.8628 17.0317 38.8628H26.2246C26.9826 38.8628 27.5971 38.2483 27.5971 37.4903V30.2075C27.5971 29.4495 26.9826 28.835 26.2246 28.835Z" stroke="white" stroke-width="1.3" stroke-linejoin="round"/>
<path id="Vector_3" d="M23.9232 32.4815C24.4304 32.4815 24.8415 32.0733 24.8415 31.5697C24.8415 31.0662 24.4304 30.658 23.9232 30.658C23.416 30.658 23.0049 31.0662 23.0049 31.5697C23.0049 32.0733 23.416 32.4815 23.9232 32.4815Z" stroke="white" stroke-width="1.3" stroke-miterlimit="10"/>
<path id="Vector_4" d="M23.0055 36.1218L20.4045 33.5435C20.2382 33.3793 20.0158 33.2842 19.7822 33.2775C19.5486 33.2708 19.3211 33.353 19.1457 33.5074L15.6592 36.5835M20.7098 38.8625L24.2491 35.3489C24.412 35.1882 24.6286 35.0937 24.8571 35.0833C25.0856 35.073 25.3098 35.1477 25.4865 35.2931L27.5971 37.0393" stroke="white" stroke-width="1.3" stroke-linecap="round" stroke-linejoin="round"/>
</g>
</svg>
