<svg width="36" height="51" viewBox="0 0 36 51" fill="none" xmlns="http://www.w3.org/2000/svg">
<g id="Group 18">
<g id="color_x5F_1_1_">
<path d="M32.5828 30.1964C30.8104 26.3682 27.7385 23.7314 24.4867 20.9402C20.631 17.6307 16.6442 14.2087 14.756 8.61856C14.0754 6.60399 13.7716 4.45059 13.7422 2.2841C10.0894 9.44176 5.53492 19.6104 4.64146 27.3276C3.83958 34.254 6.75428 41.428 12.7915 45.3464C18.098 48.7904 27.027 49.2864 31.2436 43.9486C31.5976 43.5006 31.9184 43.0115 32.2009 42.4795C34.1989 38.7181 34.3737 34.0638 32.5828 30.1964ZM26.8393 42.529C28.5145 36.854 26.8009 30.3522 22.5274 26.1699C26.0855 26.8068 29.1434 29.5868 30.044 33.0041C30.9449 36.4215 29.641 40.2963 26.8393 42.529Z" fill="#08BAE8"/>
<path d="M26.8393 42.529C28.5145 36.854 26.8009 30.3522 22.5274 26.1699C26.0855 26.8068 29.1434 29.5868 30.044 33.0041C30.9449 36.4215 29.641 40.2963 26.8393 42.529Z" fill="#08BAE8"/>
</g>
<path id="Vector" fill-rule="evenodd" clip-rule="evenodd" d="M27.1037 26.4146C26.2632 25.5482 25.2647 24.8617 24.1656 24.3945C23.0665 23.9273 21.8886 23.6887 20.6997 23.6924C15.7101 23.6924 11.6482 27.8564 11.6462 32.9755C11.644 34.6055 12.061 36.207 12.8549 37.617L11.5703 42.4258L16.3696 41.135C17.698 41.8764 19.1851 42.2645 20.696 42.264H20.6997C25.6889 42.264 29.7503 38.0996 29.7527 32.9809C29.7557 31.7601 29.5231 30.5509 29.0683 29.4236C28.6135 28.2964 27.9457 27.2735 27.1037 26.4146ZM20.6997 40.6971H20.6964C19.3495 40.6976 18.0271 40.3262 16.8668 39.6217L16.592 39.4544L13.7441 40.2204L14.5043 37.3732L14.3253 37.0805C13.5722 35.8521 13.1731 34.4285 13.1747 32.9755C13.1747 28.7216 16.5518 25.2605 20.7025 25.2605C22.6936 25.2568 24.6047 26.0682 26.0152 27.5161C27.4258 28.964 28.2204 30.9299 28.2243 32.9813C28.2226 37.2357 24.8471 40.6971 20.6997 40.6971ZM24.8268 34.9187C24.6008 34.8024 23.4875 34.2412 23.2813 34.1639C23.0752 34.0865 22.923 34.0476 22.7724 34.2801C22.6218 34.5126 22.1879 35.0328 22.056 35.1896C21.9241 35.3464 21.7922 35.3636 21.5662 35.2473C21.3401 35.1311 20.6108 34.8865 19.7467 34.0961C19.0742 33.481 18.6205 32.7217 18.4886 32.4896C18.3567 32.2575 18.4744 32.1316 18.5876 32.0162C18.6895 31.9121 18.8136 31.7453 18.9269 31.6098C19.0401 31.4743 19.0779 31.3773 19.1529 31.2226C19.228 31.0679 19.1907 30.9324 19.1343 30.8165C19.0779 30.7007 18.6253 29.5587 18.437 29.0942C18.2532 28.6417 18.0669 28.7032 17.9281 28.6961C17.7962 28.6894 17.644 28.6877 17.4942 28.6877C17.3797 28.6908 17.2671 28.7181 17.1633 28.7681C17.0595 28.818 16.9669 28.8894 16.8911 28.9779C16.6837 29.2104 16.0993 29.7724 16.0993 30.9131C16.0993 32.0539 16.911 33.1578 17.023 33.3125C17.135 33.4672 18.618 35.8102 20.8872 36.815C21.3085 37.0009 21.7391 37.1639 22.177 37.3034C22.7188 37.4799 23.2119 37.4552 23.6015 37.3954C24.0362 37.3289 24.9409 36.8342 25.1288 36.2923C25.3167 35.7504 25.3171 35.2862 25.2607 35.1896C25.2043 35.093 25.0533 35.0345 24.8268 34.9187Z" fill="white"/>
</g>
</svg>
