<svg width="171" height="32" viewBox="0 0 171 32" fill="none" xmlns="http://www.w3.org/2000/svg">
<path d="M0.10109 17.708C0.10109 16.448 0.24509 15.215 0.53309 14.009C0.83909 12.785 1.26209 11.633 1.80209 10.553C2.34209 9.455 2.98109 8.456 3.71909 7.556C4.47509 6.638 5.29409 5.846 6.17609 5.18C7.07609 4.514 8.03009 4.001 9.03809 3.641C10.0461 3.263 11.0811 3.074 12.1431 3.074C13.3851 3.074 14.3481 3.335 15.0321 3.857C15.7341 4.379 16.0851 5.108 16.0851 6.044C16.0851 6.404 16.0311 6.773 15.9231 7.151C15.8331 7.529 15.6891 7.907 15.4911 8.285C15.3111 8.645 15.0951 8.996 14.8431 9.338C14.5911 9.68 14.3121 9.977 14.0061 10.229C13.5381 10.157 13.1331 9.95 12.7911 9.608C12.4491 9.248 12.2331 8.834 12.1431 8.366C12.7731 7.844 13.2681 7.304 13.6281 6.746C14.0061 6.17 14.1951 5.648 14.1951 5.18C14.1951 4.388 13.7001 3.992 12.7101 3.992C12.2961 3.992 11.8641 4.082 11.4141 4.262C10.9821 4.424 10.5411 4.658 10.0911 4.964C9.64109 5.27 9.20009 5.639 8.76809 6.071C8.35409 6.503 7.96709 6.98 7.60709 7.502C5.10509 11.102 3.85409 14.783 3.85409 18.545C3.85409 19.877 4.06109 20.948 4.47509 21.758C4.88909 22.568 5.43809 23.045 6.12209 23.189C6.89609 23.009 7.87709 22.514 9.06509 21.704C10.2531 20.894 11.5491 19.841 12.9531 18.545C13.1331 18.725 13.2411 18.914 13.2771 19.112C12.7551 19.796 12.2151 20.453 11.6571 21.083C11.0991 21.713 10.5411 22.289 9.98309 22.811C9.44309 23.333 8.90309 23.792 8.36309 24.188C7.84109 24.584 7.35509 24.89 6.90509 25.106C4.67309 25.07 2.98109 24.431 1.82909 23.189C0.67709 21.947 0.10109 20.12 0.10109 17.708ZM18.2352 23.945C17.2092 23.837 16.3902 23.387 15.7782 22.595C15.1662 21.803 14.8602 20.795 14.8602 19.571C14.8602 18.851 14.9682 18.104 15.1842 17.33C15.4002 16.556 15.7062 15.809 16.1022 15.089C16.4982 14.351 16.9662 13.658 17.5062 13.01C18.0462 12.362 18.6312 11.804 19.2612 11.336C20.2512 10.598 21.1782 10.229 22.0422 10.229C22.6182 10.535 23.1852 11.174 23.7432 12.146C23.8332 12.146 23.9142 12.146 23.9862 12.146C24.0582 12.128 24.1392 12.119 24.2292 12.119C25.1832 12.119 25.6602 12.965 25.6602 14.657C25.6602 15.791 25.4712 16.871 25.0932 17.897C24.7332 18.905 24.2202 19.823 23.5542 20.651C22.9062 21.479 22.1232 22.181 21.2052 22.757C20.3052 23.315 19.3152 23.711 18.2352 23.945ZM19.6122 15.44C19.3062 15.854 19.0182 16.304 18.7482 16.79C18.4782 17.276 18.2442 17.771 18.0462 18.275C17.8482 18.761 17.6952 19.238 17.5872 19.706C17.4792 20.156 17.4252 20.561 17.4252 20.921C17.4252 21.353 17.4972 21.767 17.6412 22.163C17.7852 22.559 17.9472 22.784 18.1272 22.838C18.9372 22.658 19.6752 22.325 20.3412 21.839C21.0252 21.335 21.6102 20.714 22.0962 19.976C22.6002 19.238 22.9872 18.401 23.2572 17.465C23.5452 16.529 23.6892 15.53 23.6892 14.468C23.6892 14 23.6622 13.631 23.6082 13.361C23.5542 13.091 23.4642 12.857 23.3382 12.659C22.5462 12.893 21.8352 13.271 21.2052 13.793C20.5932 14.315 20.0622 14.864 19.6122 15.44ZM36.6331 11.822C36.5611 12.938 36.3631 13.901 36.0391 14.711C35.7151 15.503 35.2471 16.205 34.6351 16.817C34.0411 17.411 33.3121 17.951 32.4481 18.437C31.5841 18.923 30.5761 19.391 29.4241 19.841C29.4241 19.949 29.4151 20.066 29.3971 20.192C29.3971 20.3 29.3971 20.417 29.3971 20.543C29.3971 20.777 29.4151 21.02 29.4511 21.272C29.4871 21.524 29.5501 21.758 29.6401 21.974C29.7301 22.19 29.8561 22.37 30.0181 22.514C30.1801 22.64 30.3871 22.703 30.6391 22.703C31.1251 22.703 31.6021 22.595 32.0701 22.379C32.5381 22.163 32.9791 21.902 33.3931 21.596C33.8251 21.272 34.2211 20.93 34.5811 20.57C34.9591 20.192 35.2921 19.85 35.5801 19.544C35.7601 19.706 35.9131 19.859 36.0391 20.003C35.2291 21.083 34.3381 21.983 33.3661 22.703C32.4121 23.405 31.5031 23.855 30.6391 24.053C29.3971 23.909 28.4251 23.459 27.7231 22.703C27.0391 21.929 26.6971 21.002 26.6971 19.922C26.6971 19.184 26.7961 18.437 26.9941 17.681C27.2101 16.907 27.4981 16.169 27.8581 15.467C28.2361 14.747 28.6681 14.072 29.1541 13.442C29.6581 12.812 30.1891 12.263 30.7471 11.795C31.3231 11.327 31.9081 10.958 32.5021 10.688C33.1141 10.418 33.7171 10.283 34.3111 10.283C35.1391 10.391 35.9131 10.904 36.6331 11.822ZM34.7701 12.713C34.2841 12.785 33.7801 12.983 33.2581 13.307C32.7361 13.631 32.2411 14.063 31.7731 14.603C31.3231 15.143 30.9091 15.773 30.5311 16.493C30.1531 17.213 29.8561 17.987 29.6401 18.815C31.0801 18.095 32.2771 17.213 33.2311 16.169C34.1851 15.107 34.6981 13.955 34.7701 12.713ZM37.8562 21.272C37.8562 20.48 38.0452 19.373 38.4232 17.951C38.8012 16.511 39.3322 14.837 40.0162 12.929C41.1322 9.887 42.1762 7.358 43.1482 5.342C44.1382 3.308 45.1012 1.724 46.0372 0.589999C46.2532 0.625998 46.5142 0.715998 46.8202 0.859999C47.1442 1.004 47.4592 1.166 47.7652 1.346C48.0712 1.508 48.3412 1.679 48.5752 1.859C48.8272 2.039 48.9892 2.183 49.0612 2.291C47.6572 3.947 46.4242 5.729 45.3622 7.637C44.3002 9.545 43.3282 11.732 42.4462 14.198C41.6902 16.322 41.1142 18.239 40.7182 19.949C40.3222 21.641 40.1242 23.054 40.1242 24.188C40.1242 24.494 40.1242 24.683 40.1242 24.755C40.1242 24.827 40.1332 24.899 40.1512 24.971C39.8992 24.935 39.6832 24.872 39.5032 24.782C39.3232 24.692 39.2062 24.584 39.1522 24.458C39.1162 24.368 39.0172 24.233 38.8552 24.053C38.6932 23.891 38.5492 23.765 38.4232 23.675C38.2612 23.567 38.1262 23.288 38.0182 22.838C37.9102 22.37 37.8562 21.848 37.8562 21.272ZM44.237 22.541C44.237 21.911 44.3 21.173 44.426 20.327C44.552 19.463 44.732 18.545 44.966 17.573C45.218 16.601 45.506 15.584 45.83 14.522C46.172 13.46 46.55 12.398 46.964 11.336C47.324 10.382 47.738 9.419 48.206 8.447C48.692 7.475 49.214 6.521 49.772 5.585C50.33 4.649 50.906 3.758 51.5 2.912C52.112 2.066 52.724 1.292 53.336 0.589999C53.624 0.589999 53.93 0.625999 54.254 0.697999C54.596 0.769999 54.92 0.868999 55.226 0.994998C55.55 1.103 55.838 1.238 56.09 1.4C56.36 1.562 56.576 1.724 56.738 1.886C55.388 3.272 54.173 4.676 53.093 6.098C52.013 7.502 51.158 8.825 50.528 10.067C50.186 10.751 49.871 11.39 49.583 11.984C49.313 12.578 49.061 13.172 48.827 13.766C48.593 14.342 48.377 14.927 48.179 15.521C47.999 16.097 47.828 16.709 47.666 17.357C51.122 12.947 53.687 10.742 55.361 10.742C55.829 10.742 56.333 10.895 56.873 11.201C57.413 11.507 57.89 11.921 58.304 12.443C57.746 13.055 57.17 13.793 56.576 14.657C55.982 15.521 55.433 16.394 54.929 17.276C54.443 18.14 54.038 18.95 53.714 19.706C53.408 20.444 53.255 20.993 53.255 21.353C53.255 21.533 53.282 21.659 53.336 21.731C53.39 21.785 53.507 21.812 53.687 21.812C53.957 21.812 54.173 21.776 54.335 21.704C54.497 21.632 54.596 21.596 54.632 21.596C54.722 21.74 54.776 21.839 54.794 21.893C54.812 21.947 54.821 21.992 54.821 22.028C54.821 22.1 54.713 22.208 54.497 22.352C54.281 22.478 54.02 22.613 53.714 22.757C53.426 22.883 53.138 23 52.85 23.108C52.562 23.216 52.346 23.27 52.202 23.27C52.022 23.27 51.842 23.216 51.662 23.108C51.482 23.018 51.32 22.892 51.176 22.73C51.05 22.568 50.942 22.388 50.852 22.19C50.78 21.992 50.744 21.785 50.744 21.569C50.744 21.299 50.816 20.903 50.96 20.381C51.122 19.841 51.338 19.22 51.608 18.518C51.878 17.798 52.202 17.015 52.58 16.169C52.958 15.323 53.363 14.459 53.795 13.577C53.795 13.505 53.759 13.469 53.687 13.469C53.633 13.469 53.489 13.541 53.255 13.685C53.039 13.829 52.832 13.973 52.634 14.117C51.986 14.603 51.329 15.206 50.663 15.926C50.015 16.628 49.376 17.402 48.746 18.248C48.134 19.094 47.549 19.994 46.991 20.948C46.451 21.884 45.983 22.829 45.587 23.783C45.533 23.909 45.452 24.026 45.344 24.134C45.236 24.242 45.146 24.296 45.074 24.296C45.02 24.296 44.939 24.233 44.831 24.107C44.741 23.981 44.651 23.819 44.561 23.621C44.489 23.441 44.417 23.252 44.345 23.054C44.273 22.856 44.237 22.685 44.237 22.541ZM61.3983 23.945C60.3723 23.837 59.5533 23.387 58.9413 22.595C58.3293 21.803 58.0233 20.795 58.0233 19.571C58.0233 18.851 58.1313 18.104 58.3473 17.33C58.5633 16.556 58.8693 15.809 59.2653 15.089C59.6613 14.351 60.1293 13.658 60.6693 13.01C61.2093 12.362 61.7943 11.804 62.4243 11.336C63.4143 10.598 64.3413 10.229 65.2053 10.229C65.7813 10.535 66.3483 11.174 66.9063 12.146C66.9963 12.146 67.0773 12.146 67.1493 12.146C67.2213 12.128 67.3023 12.119 67.3923 12.119C68.3463 12.119 68.8233 12.965 68.8233 14.657C68.8233 15.791 68.6343 16.871 68.2563 17.897C67.8963 18.905 67.3833 19.823 66.7173 20.651C66.0693 21.479 65.2863 22.181 64.3683 22.757C63.4683 23.315 62.4783 23.711 61.3983 23.945ZM62.7753 15.44C62.4693 15.854 62.1813 16.304 61.9113 16.79C61.6413 17.276 61.4073 17.771 61.2093 18.275C61.0113 18.761 60.8583 19.238 60.7503 19.706C60.6423 20.156 60.5883 20.561 60.5883 20.921C60.5883 21.353 60.6603 21.767 60.8043 22.163C60.9483 22.559 61.1103 22.784 61.2903 22.838C62.1003 22.658 62.8383 22.325 63.5043 21.839C64.1883 21.335 64.7733 20.714 65.2593 19.976C65.7633 19.238 66.1503 18.401 66.4203 17.465C66.7083 16.529 66.8523 15.53 66.8523 14.468C66.8523 14 66.8253 13.631 66.7713 13.361C66.7173 13.091 66.6273 12.857 66.5013 12.659C65.7093 12.893 64.9983 13.271 64.3683 13.793C63.7563 14.315 63.2253 14.864 62.7753 15.44ZM94.2758 4.802C94.3298 5.108 94.3658 5.324 94.3838 5.45C94.4198 5.558 94.4378 5.711 94.4378 5.909C94.4378 6.503 94.3028 7.061 94.0328 7.583C93.7808 8.087 93.4298 8.447 92.9798 8.663C92.6198 8.177 92.1788 7.763 91.6568 7.421C91.1348 7.061 90.5588 6.773 89.9288 6.557C89.3168 6.323 88.6778 6.152 88.0118 6.044C87.3458 5.936 86.6978 5.882 86.0678 5.882C85.4378 5.882 84.8438 5.936 84.2858 6.044C83.7458 6.134 83.2598 6.269 82.8278 6.449C82.4138 6.611 82.0808 6.818 81.8288 7.07C81.5948 7.322 81.4778 7.61 81.4778 7.934C81.5318 8.33 81.7748 8.735 82.2068 9.149C82.6388 9.545 83.1698 9.941 83.7998 10.337C84.4298 10.715 85.1228 11.093 85.8788 11.471C86.6528 11.849 87.4088 12.209 88.1468 12.551C89.0648 12.983 89.8568 13.388 90.5228 13.766C91.1888 14.126 91.7378 14.531 92.1698 14.981C92.6018 15.413 92.9258 15.908 93.1418 16.466C93.3578 17.024 93.4658 17.699 93.4658 18.491C93.4658 19.409 93.3128 20.273 93.0068 21.083C92.7008 21.875 92.2508 22.568 91.6568 23.162C91.0808 23.756 90.3788 24.215 89.5508 24.539C88.7228 24.881 87.7958 25.052 86.7698 25.052C85.7618 25.052 84.6728 24.899 83.5028 24.593C82.3328 24.287 81.2348 23.864 80.2088 23.324C79.2008 22.802 78.3548 22.199 77.6708 21.515C77.0048 20.813 76.6718 20.075 76.6718 19.301C76.6718 18.941 76.7708 18.482 76.9688 17.924C77.1848 17.366 77.5628 16.781 78.1028 16.169C78.1568 16.709 78.4448 17.348 78.9668 18.086C79.5068 18.824 80.3078 19.508 81.3698 20.138C82.3598 20.714 83.3768 21.137 84.4208 21.407C85.4828 21.659 86.4728 21.785 87.3908 21.785C88.3988 21.785 89.2178 21.659 89.8478 21.407C90.4778 21.155 90.9728 20.858 91.3328 20.516C91.6928 20.156 91.9448 19.796 92.0888 19.436C92.2328 19.076 92.3138 18.788 92.3318 18.572C92.3138 18.212 92.1428 17.87 91.8188 17.546C91.5128 17.204 91.0898 16.88 90.5498 16.574C90.0278 16.25 89.4158 15.926 88.7138 15.602C88.0118 15.278 87.2828 14.954 86.5268 14.63C85.3928 14.126 84.4118 13.658 83.5838 13.226C82.7738 12.776 82.0988 12.326 81.5588 11.876C81.0368 11.408 80.6498 10.922 80.3978 10.418C80.1638 9.914 80.0468 9.338 80.0468 8.69C80.0468 7.682 80.3528 6.728 80.9648 5.828C81.5768 4.928 82.4588 4.244 83.6108 3.776C84.1868 3.524 84.7988 3.344 85.4468 3.236C86.1128 3.128 86.7608 3.074 87.3908 3.074C88.5788 3.074 89.7398 3.236 90.8738 3.56C92.0078 3.884 93.1418 4.298 94.2758 4.802ZM98.576 23.945C97.55 23.837 96.731 23.387 96.119 22.595C95.507 21.803 95.201 20.795 95.201 19.571C95.201 18.851 95.309 18.104 95.525 17.33C95.741 16.556 96.047 15.809 96.443 15.089C96.839 14.351 97.307 13.658 97.847 13.01C98.387 12.362 98.972 11.804 99.602 11.336C100.592 10.598 101.519 10.229 102.383 10.229C102.959 10.535 103.526 11.174 104.084 12.146C104.174 12.146 104.255 12.146 104.327 12.146C104.399 12.128 104.48 12.119 104.57 12.119C105.524 12.119 106.001 12.965 106.001 14.657C106.001 15.791 105.812 16.871 105.434 17.897C105.074 18.905 104.561 19.823 103.895 20.651C103.247 21.479 102.464 22.181 101.546 22.757C100.646 23.315 99.656 23.711 98.576 23.945ZM99.953 15.44C99.647 15.854 99.359 16.304 99.089 16.79C98.819 17.276 98.585 17.771 98.387 18.275C98.189 18.761 98.036 19.238 97.928 19.706C97.82 20.156 97.766 20.561 97.766 20.921C97.766 21.353 97.838 21.767 97.982 22.163C98.126 22.559 98.288 22.784 98.468 22.838C99.278 22.658 100.016 22.325 100.682 21.839C101.366 21.335 101.951 20.714 102.437 19.976C102.941 19.238 103.328 18.401 103.598 17.465C103.886 16.529 104.03 15.53 104.03 14.468C104.03 14 104.003 13.631 103.949 13.361C103.895 13.091 103.805 12.857 103.679 12.659C102.887 12.893 102.176 13.271 101.546 13.793C100.934 14.315 100.403 14.864 99.953 15.44ZM107.281 21.272C107.281 20.48 107.47 19.373 107.848 17.951C108.226 16.511 108.757 14.837 109.441 12.929C110.557 9.887 111.601 7.358 112.573 5.342C113.563 3.308 114.526 1.724 115.462 0.589999C115.678 0.625998 115.939 0.715998 116.245 0.859999C116.569 1.004 116.884 1.166 117.19 1.346C117.496 1.508 117.766 1.679 118 1.859C118.252 2.039 118.414 2.183 118.486 2.291C117.082 3.947 115.849 5.729 114.787 7.637C113.725 9.545 112.753 11.732 111.871 14.198C111.115 16.322 110.539 18.239 110.143 19.949C109.747 21.641 109.549 23.054 109.549 24.188C109.549 24.494 109.549 24.683 109.549 24.755C109.549 24.827 109.558 24.899 109.576 24.971C109.324 24.935 109.108 24.872 108.928 24.782C108.748 24.692 108.631 24.584 108.577 24.458C108.541 24.368 108.442 24.233 108.28 24.053C108.118 23.891 107.974 23.765 107.848 23.675C107.686 23.567 107.551 23.288 107.443 22.838C107.335 22.37 107.281 21.848 107.281 21.272ZM121.033 22.406C120.691 22.118 120.457 21.758 120.331 21.326C120.223 20.894 120.169 20.525 120.169 20.219C120.169 19.841 120.214 19.517 120.304 19.247C120.232 19.247 120.07 19.391 119.818 19.679C119.566 19.967 119.287 20.309 118.981 20.705C118.693 21.101 118.405 21.488 118.117 21.866C117.829 22.244 117.613 22.523 117.469 22.703C117.235 22.955 117.01 23.153 116.794 23.297C116.596 23.441 116.434 23.522 116.308 23.54C116.02 23.522 115.714 23.459 115.39 23.351C115.084 23.261 114.787 23.126 114.499 22.946C114.229 22.766 113.986 22.55 113.77 22.298C113.572 22.046 113.437 21.758 113.365 21.434C113.365 20.93 113.374 20.516 113.392 20.192C113.428 19.868 113.491 19.517 113.581 19.139C113.743 18.455 113.977 17.681 114.283 16.817C114.607 15.953 114.976 15.107 115.39 14.279C115.804 13.433 116.263 12.65 116.767 11.93C117.289 11.192 117.838 10.616 118.414 10.202C118.576 10.202 118.765 10.22 118.981 10.256C119.197 10.274 119.413 10.319 119.629 10.391C119.863 10.463 120.079 10.553 120.277 10.661C120.493 10.751 120.673 10.877 120.817 11.039C120.655 11.219 120.241 11.822 119.575 12.848C118.927 13.874 118.198 15.35 117.388 17.276C117.298 17.474 117.19 17.762 117.064 18.14C116.938 18.518 116.812 18.914 116.686 19.328C116.56 19.742 116.452 20.147 116.362 20.543C116.29 20.939 116.254 21.254 116.254 21.488C116.254 21.632 116.272 21.74 116.308 21.812C116.362 21.884 116.407 21.938 116.443 21.974C116.713 21.866 117.055 21.569 117.469 21.083C117.883 20.597 118.459 19.85 119.197 18.842C119.377 18.59 119.584 18.302 119.818 17.978C120.07 17.654 120.322 17.312 120.574 16.952C120.826 16.574 121.06 16.187 121.276 15.791C121.51 15.395 121.699 14.999 121.843 14.603C121.915 14.387 122.005 14.135 122.113 13.847C122.239 13.541 122.383 13.226 122.545 12.902C122.725 12.578 122.923 12.254 123.139 11.93C123.373 11.588 123.643 11.273 123.949 10.985C124.183 10.985 124.435 11.012 124.705 11.066C124.975 11.12 125.227 11.192 125.461 11.282C125.713 11.354 125.929 11.444 126.109 11.552C126.289 11.642 126.424 11.741 126.514 11.849C126.19 12.641 125.83 13.424 125.434 14.198C125.038 14.972 124.669 15.737 124.327 16.493C123.985 17.231 123.697 17.969 123.463 18.707C123.229 19.445 123.112 20.165 123.112 20.867C123.112 21.245 123.139 21.578 123.193 21.866C123.265 22.136 123.337 22.37 123.409 22.568C123.481 22.748 123.544 22.901 123.598 23.027C123.67 23.153 123.706 23.261 123.706 23.351C123.706 23.369 123.688 23.396 123.652 23.432C123.634 23.45 123.616 23.459 123.598 23.459C123.472 23.459 123.31 23.432 123.112 23.378C122.914 23.324 122.689 23.243 122.437 23.135C122.203 23.045 121.96 22.937 121.708 22.811C121.474 22.685 121.249 22.55 121.033 22.406ZM127.034 18.248C127.034 17.222 127.241 16.232 127.655 15.278C128.087 14.306 128.645 13.451 129.329 12.713C130.031 11.957 130.823 11.354 131.705 10.904C132.605 10.436 133.532 10.202 134.486 10.202C135.422 10.202 136.142 10.436 136.646 10.904C137.15 11.372 137.402 12.038 137.402 12.902C137.402 13.316 137.339 13.721 137.213 14.117C137.105 14.495 136.952 14.837 136.754 15.143C136.574 15.449 136.358 15.701 136.106 15.899C135.854 16.079 135.602 16.169 135.35 16.169C135.134 16.169 134.909 16.106 134.675 15.98C134.459 15.836 134.279 15.656 134.135 15.44C135.341 14.342 135.944 13.343 135.944 12.443C135.944 11.921 135.737 11.66 135.323 11.66C134.963 11.66 134.513 11.831 133.973 12.173C133.433 12.515 132.911 12.965 132.407 13.523C131.633 14.387 131.039 15.35 130.625 16.412C130.229 17.456 130.031 18.554 130.031 19.706C130.031 21.164 130.355 22.037 131.003 22.325C131.273 22.289 131.588 22.208 131.948 22.082C132.308 21.956 132.695 21.794 133.109 21.596C133.523 21.38 133.946 21.137 134.378 20.867C134.828 20.597 135.26 20.309 135.674 20.003C135.746 20.057 135.809 20.138 135.863 20.246C135.917 20.354 135.944 20.453 135.944 20.543C135.656 20.903 135.323 21.254 134.945 21.596C134.567 21.938 134.171 22.253 133.757 22.541C133.343 22.829 132.938 23.081 132.542 23.297C132.146 23.513 131.795 23.657 131.489 23.729C131.201 24.143 130.94 24.548 130.706 24.944C130.472 25.34 130.292 25.691 130.166 25.997C130.328 25.907 130.526 25.817 130.76 25.727C131.012 25.655 131.264 25.583 131.516 25.511C131.768 25.439 132.011 25.385 132.245 25.349C132.497 25.313 132.704 25.295 132.866 25.295C132.938 25.295 133.064 25.349 133.244 25.457C133.424 25.583 133.595 25.718 133.757 25.862C133.937 26.006 134.09 26.15 134.216 26.294C134.36 26.438 134.432 26.546 134.432 26.618C134.432 26.744 134.324 26.942 134.108 27.212C133.892 27.482 133.613 27.779 133.271 28.103C132.947 28.427 132.578 28.769 132.164 29.129C131.75 29.489 131.354 29.813 130.976 30.101C130.598 30.389 130.247 30.623 129.923 30.803C129.617 31.001 129.392 31.1 129.248 31.1C129.212 31.1 129.158 31.055 129.086 30.965C129.032 30.893 128.969 30.803 128.897 30.695C128.843 30.587 128.789 30.479 128.735 30.371C128.699 30.263 128.681 30.182 128.681 30.128C129.095 29.786 129.455 29.471 129.761 29.183C130.067 28.895 130.346 28.616 130.598 28.346C130.85 28.076 131.084 27.788 131.3 27.482C131.516 27.176 131.741 26.834 131.975 26.456C131.831 26.492 131.624 26.537 131.354 26.591C131.084 26.663 130.796 26.744 130.49 26.834C130.202 26.942 129.905 27.041 129.599 27.131C129.311 27.239 129.059 27.329 128.843 27.401C128.789 27.365 128.744 27.311 128.708 27.239C128.672 27.185 128.645 27.131 128.627 27.077C128.717 26.771 128.96 26.294 129.356 25.646C129.752 24.998 130.211 24.341 130.733 23.675C130.211 23.549 129.725 23.315 129.275 22.973C128.825 22.631 128.429 22.217 128.087 21.731C127.763 21.245 127.502 20.705 127.304 20.111C127.124 19.517 127.034 18.896 127.034 18.248ZM141.37 23.945C140.344 23.837 139.525 23.387 138.913 22.595C138.301 21.803 137.995 20.795 137.995 19.571C137.995 18.851 138.103 18.104 138.319 17.33C138.535 16.556 138.841 15.809 139.237 15.089C139.633 14.351 140.101 13.658 140.641 13.01C141.181 12.362 141.766 11.804 142.396 11.336C143.386 10.598 144.313 10.229 145.177 10.229C145.753 10.535 146.32 11.174 146.878 12.146C146.968 12.146 147.049 12.146 147.121 12.146C147.193 12.128 147.274 12.119 147.364 12.119C148.318 12.119 148.795 12.965 148.795 14.657C148.795 15.791 148.606 16.871 148.228 17.897C147.868 18.905 147.355 19.823 146.689 20.651C146.041 21.479 145.258 22.181 144.34 22.757C143.44 23.315 142.45 23.711 141.37 23.945ZM142.747 15.44C142.441 15.854 142.153 16.304 141.883 16.79C141.613 17.276 141.379 17.771 141.181 18.275C140.983 18.761 140.83 19.238 140.722 19.706C140.614 20.156 140.56 20.561 140.56 20.921C140.56 21.353 140.632 21.767 140.776 22.163C140.92 22.559 141.082 22.784 141.262 22.838C142.072 22.658 142.81 22.325 143.476 21.839C144.16 21.335 144.745 20.714 145.231 19.976C145.735 19.238 146.122 18.401 146.392 17.465C146.68 16.529 146.824 15.53 146.824 14.468C146.824 14 146.797 13.631 146.743 13.361C146.689 13.091 146.599 12.857 146.473 12.659C145.681 12.893 144.97 13.271 144.34 13.793C143.728 14.315 143.197 14.864 142.747 15.44ZM143.908 6.476C144.754 6.764 145.582 6.908 146.392 6.908C147.076 6.908 147.787 6.809 148.525 6.611C149.263 6.395 150.091 6.071 151.009 5.639C151.117 5.765 151.216 5.927 151.306 6.125C151.414 6.323 151.504 6.539 151.576 6.773C151.666 6.989 151.738 7.214 151.792 7.448C151.846 7.682 151.891 7.889 151.927 8.069C151.117 8.357 150.37 8.564 149.686 8.69C149.002 8.816 148.363 8.879 147.769 8.879C146.653 8.879 145.762 8.636 145.096 8.15C144.43 7.664 144.034 7.106 143.908 6.476ZM159.768 11.822C159.696 12.938 159.498 13.901 159.174 14.711C158.85 15.503 158.382 16.205 157.77 16.817C157.176 17.411 156.447 17.951 155.583 18.437C154.719 18.923 153.711 19.391 152.559 19.841C152.559 19.949 152.55 20.066 152.532 20.192C152.532 20.3 152.532 20.417 152.532 20.543C152.532 20.777 152.55 21.02 152.586 21.272C152.622 21.524 152.685 21.758 152.775 21.974C152.865 22.19 152.991 22.37 153.153 22.514C153.315 22.64 153.522 22.703 153.774 22.703C154.26 22.703 154.737 22.595 155.205 22.379C155.673 22.163 156.114 21.902 156.528 21.596C156.96 21.272 157.356 20.93 157.716 20.57C158.094 20.192 158.427 19.85 158.715 19.544C158.895 19.706 159.048 19.859 159.174 20.003C158.364 21.083 157.473 21.983 156.501 22.703C155.547 23.405 154.638 23.855 153.774 24.053C152.532 23.909 151.56 23.459 150.858 22.703C150.174 21.929 149.832 21.002 149.832 19.922C149.832 19.184 149.931 18.437 150.129 17.681C150.345 16.907 150.633 16.169 150.993 15.467C151.371 14.747 151.803 14.072 152.289 13.442C152.793 12.812 153.324 12.263 153.882 11.795C154.458 11.327 155.043 10.958 155.637 10.688C156.249 10.418 156.852 10.283 157.446 10.283C158.274 10.391 159.048 10.904 159.768 11.822ZM157.905 12.713C157.419 12.785 156.915 12.983 156.393 13.307C155.871 13.631 155.376 14.063 154.908 14.603C154.458 15.143 154.044 15.773 153.666 16.493C153.288 17.213 152.991 17.987 152.775 18.815C154.215 18.095 155.412 17.213 156.366 16.169C157.32 15.107 157.833 13.955 157.905 12.713ZM170.333 12.254C170.315 12.596 170.252 12.956 170.144 13.334C170.054 13.694 169.937 14.027 169.793 14.333C169.649 14.621 169.496 14.864 169.334 15.062C169.172 15.26 169.019 15.359 168.875 15.359C168.677 15.341 168.56 15.206 168.524 14.954C168.524 14.9 168.542 14.819 168.578 14.711C168.632 14.585 168.686 14.45 168.74 14.306C168.794 14.162 168.839 14.018 168.875 13.874C168.929 13.73 168.956 13.604 168.956 13.496C168.956 13.244 168.893 13.037 168.767 12.875C168.659 12.695 168.506 12.605 168.308 12.605C167.588 12.605 167.039 13.055 166.661 13.955C166.283 14.855 166.094 16.178 166.094 17.924C166.094 18.104 166.103 18.212 166.121 18.248C166.499 18.23 166.832 18.221 167.12 18.221C167.426 18.203 167.723 18.194 168.011 18.194C168.029 18.23 168.038 18.302 168.038 18.41C168.038 18.572 168.002 18.689 167.93 18.761C167.516 18.851 167.183 18.932 166.931 19.004C166.697 19.058 166.517 19.112 166.391 19.166C166.265 19.22 166.184 19.283 166.148 19.355C166.13 19.409 166.121 19.49 166.121 19.598C166.121 19.742 166.121 19.886 166.121 20.03C166.139 20.174 166.148 20.354 166.148 20.57C166.148 22.082 165.734 23.297 164.906 24.215C164.096 25.133 162.962 25.664 161.504 25.808C161.252 25.79 160.991 25.718 160.721 25.592C160.451 25.466 160.19 25.304 159.938 25.106C159.704 24.908 159.497 24.683 159.317 24.431C159.137 24.197 159.011 23.954 158.939 23.702C158.939 23.018 159.083 22.37 159.371 21.758C159.659 21.128 160.046 20.579 160.532 20.111C161.036 19.625 161.621 19.238 162.287 18.95C162.971 18.644 163.709 18.464 164.501 18.41C164.501 17.96 164.456 17.519 164.366 17.087C164.276 16.655 164.177 16.241 164.069 15.845C163.979 15.431 163.889 15.035 163.799 14.657C163.709 14.261 163.664 13.874 163.664 13.496C163.664 13.01 163.763 12.533 163.961 12.065C164.159 11.579 164.42 11.138 164.744 10.742C165.068 10.328 165.446 9.977 165.878 9.689C166.31 9.401 166.76 9.203 167.228 9.095C167.426 9.149 167.687 9.311 168.011 9.581C168.353 9.833 168.686 10.121 169.01 10.445C169.334 10.769 169.622 11.102 169.874 11.444C170.126 11.768 170.279 12.038 170.333 12.254ZM161.423 24.566C161.855 24.386 162.26 24.125 162.638 23.783C163.034 23.441 163.376 23.054 163.664 22.622C163.952 22.19 164.177 21.731 164.339 21.245C164.519 20.759 164.609 20.282 164.609 19.814C164.249 19.868 163.853 20.039 163.421 20.327C162.989 20.597 162.584 20.93 162.206 21.326C161.828 21.704 161.513 22.1 161.261 22.514C161.009 22.928 160.883 23.288 160.883 23.594C160.883 23.99 161.063 24.314 161.423 24.566Z" fill="#263238"/>
</svg>
