<svg width="53" height="65" viewBox="0 0 53 65" fill="none" xmlns="http://www.w3.org/2000/svg">
<path d="M32.5973 46.0499C30.824 42.4633 27.7508 39.9928 24.4975 37.3778C20.6402 34.2772 16.6515 31.0711 14.7625 25.8337C14.0816 23.9463 13.7777 21.9288 13.7483 19.899C10.0939 26.605 5.53738 36.1319 4.64352 43.3622C3.84128 49.8515 6.75727 56.5728 12.7972 60.2438C18.106 63.4705 27.039 63.9353 31.2575 58.9343C31.6116 58.5145 31.9326 58.0563 32.2152 57.5579C34.2141 54.0338 34.3889 49.6732 32.5973 46.0499ZM26.8512 57.6043C28.5272 52.2874 26.8127 46.1959 22.5373 42.2775C26.0971 42.8742 29.1563 45.4788 30.0574 48.6805C30.9586 51.8822 29.6541 55.5124 26.8512 57.6043Z" fill="#08BAE8"/>
<path fill-rule="evenodd" clip-rule="evenodd" d="M19.4844 15.0178C20.1098 14.203 20.7399 12.9004 20.0348 11.8749C19.6358 11.2433 18.8229 9.59495 18.7637 8.05381C18.7853 7.83379 18.8767 7.34579 19.0696 7.15397C19.2626 6.96214 19.7359 6.56782 19.9485 6.39464C20.1545 6.12408 20.5882 5.98423 20.6752 7.5893C20.6918 8.07114 20.8999 9.35007 21.5995 10.6112C21.8121 11.0691 22.6169 12.0313 24.1352 12.2163C28.4663 10.889 33.8228 11.7103 37.5053 13.8574C43.6204 17.4229 46.6754 24.0923 46.0082 30.5944C45.2647 37.8389 41.6804 47.6275 38.166 54.3958C37.4585 55.7584 37.1692 53.675 36.8668 51.4967C36.694 50.2525 36.517 48.9773 36.2552 48.2956C34.2578 43.0921 30.2036 39.956 26.2828 36.9231L26.2823 36.9227C22.9753 34.3647 19.8513 31.948 18.0039 28.3929C16.1373 24.8013 16.2215 20.4385 18.1468 16.8803C18.4191 16.3771 18.7305 15.9134 19.0758 15.4875C19.2072 15.3255 19.3435 15.169 19.4844 15.0178ZM37.3984 25.6372C37.3718 25.6078 37.3518 25.5979 37.3318 25.5879C37.3212 25.562 37.3278 25.562 37.3278 25.562C37.3074 25.5573 37.2879 25.5477 37.2684 25.5381L37.2684 25.5381C37.2577 25.5131 37.2653 25.513 37.2653 25.513C37.2454 25.5085 37.2262 25.4984 37.207 25.4884C37.1969 25.4628 37.2046 25.4628 37.2046 25.4628C37.1843 25.4586 37.1647 25.4489 37.1451 25.4392L37.1451 25.4392C37.1346 25.4137 37.142 25.4137 37.142 25.4137C37.1232 25.4084 37.105 25.3977 37.0868 25.387C37.0772 25.3614 37.0822 25.3618 37.0822 25.3618C36.7674 25.1772 36.4535 24.9889 36.1396 24.8006C36.1125 24.7738 36.0923 24.7777 36.0923 24.7777C36.077 24.767 36.0542 24.773 36.0542 24.773C36.0644 24.8083 36.0737 24.8445 36.083 24.8812C36.119 25.0227 36.1565 25.1703 36.2588 25.2881C37.6245 26.8609 38.7764 28.5128 39.7359 30.2326C40.3991 31.4214 41.0197 32.6231 41.6215 33.8287C41.8633 34.3131 42.0322 34.821 41.9619 35.346C41.9232 35.6349 41.7843 35.8745 41.3611 35.9638C41.0006 36.0399 40.6131 35.9492 40.3647 35.6625C40.067 35.3189 39.7855 34.9611 39.5712 34.5874C38.6775 33.0291 37.7452 31.4837 36.6349 29.9991C36.3414 29.6068 35.9848 29.2382 35.6297 28.8711C35.5744 28.8139 35.519 28.7567 35.464 28.6995C35.3521 28.5832 35.1696 28.4912 34.995 28.4215C34.7717 28.3323 34.5624 28.4447 34.6343 28.622C34.718 28.8284 34.8324 29.0405 35.0011 29.2156C36.1386 30.3955 36.9586 31.6946 37.7795 32.9952C37.8108 33.0448 37.8421 33.0944 37.8734 33.144C38.6479 34.3703 39.4169 35.5974 40.001 36.8795C40.0081 36.8951 40.0154 36.9107 40.0227 36.9262C40.0432 36.9698 40.0638 37.0135 40.0796 37.0579C40.2215 37.4571 40.0904 37.7111 39.65 37.8952C39.1786 38.0924 38.7495 38.0666 38.3843 37.7515C38.0953 37.5023 37.837 37.2193 37.6522 36.9231C37.2835 36.3316 36.9258 35.7363 36.5681 35.1411C35.9743 34.153 35.3805 33.165 34.7363 32.1944C34.2103 31.4019 33.5755 30.6463 32.9419 29.892C32.7927 29.7143 32.6435 29.5367 32.4958 29.3587C32.3501 29.1831 32.0906 29.05 31.8482 28.9256C31.8272 28.9149 31.8064 28.9042 31.7858 28.8935C31.7176 28.8583 31.6117 28.8626 31.5058 28.867C31.4575 28.8689 31.4093 28.8709 31.3646 28.8691C31.3661 28.901 31.3629 28.9348 31.3597 28.9686C31.3528 29.0419 31.3459 29.1152 31.3872 29.1693C31.5234 29.3477 31.6704 29.5218 31.8175 29.6959C31.9758 29.8833 32.1341 30.0708 32.2789 30.2636C32.7935 30.9488 33.2994 31.6373 33.8054 32.3259C34.0218 32.6204 34.2382 32.915 34.4553 33.2093C34.6022 33.4084 34.7502 33.6072 34.8981 33.806C35.2126 34.2286 35.5271 34.6513 35.8321 35.0776L35.8329 35.0787C36.2154 35.6134 36.5989 36.1496 36.7232 36.7569C36.7963 37.1146 36.6642 37.396 36.3499 37.5133C36.0158 37.638 35.5896 37.6036 35.2841 37.32C34.8347 36.9027 34.4073 36.4599 34.0795 35.9884C33.854 35.664 33.6338 35.3376 33.4135 35.0112C32.6674 33.9056 31.9214 32.8002 30.9737 31.7735C30.454 31.2105 29.9101 30.6594 29.3663 30.1082C29.2173 29.9572 29.0683 29.8063 28.9198 29.655C28.8335 29.5672 28.7128 29.494 28.5938 29.4277C28.5484 29.4024 28.489 29.3906 28.4295 29.3788C28.4028 29.3734 28.376 29.3681 28.3505 29.3616C28.3445 29.382 28.3345 29.4036 28.3245 29.4252C28.3029 29.472 28.2812 29.5188 28.3002 29.5544C28.3252 29.6016 28.3497 29.6492 28.3741 29.6969C28.4776 29.8987 28.582 30.1022 28.7395 30.2798C29.072 30.6546 29.4152 31.0244 29.7585 31.3941C30.1468 31.8125 30.5352 32.2308 30.9078 32.6564C31.4706 33.2992 31.9744 33.9692 32.2538 34.7111C32.31 34.8603 32.3406 35.0175 32.3506 35.1717C32.3634 35.3676 32.2907 35.5469 32.0232 35.638C31.7493 35.7313 31.4575 35.7249 31.2455 35.5664C30.9471 35.3434 30.6505 35.1069 30.4294 34.8425C30.153 34.512 29.8826 34.1788 29.6122 33.8456C28.7736 32.8122 27.9351 31.779 26.9188 30.8271C26.7219 30.6428 26.5246 30.4586 26.3273 30.2745C25.568 29.5659 24.8086 28.8573 24.0754 28.1346C22.9378 27.0132 21.9158 25.8363 21.1247 24.5638C20.4002 23.3986 19.8847 22.1881 19.7947 20.9074C19.7223 19.876 19.8975 18.8602 20.2469 17.8663C20.3847 17.4744 20.549 17.0878 20.7132 16.7012C20.7824 16.5382 20.8517 16.3752 20.9189 16.2118C20.9298 16.1853 20.9461 16.1601 20.9655 16.1299C20.9756 16.1143 20.9866 16.0973 20.9981 16.0781C21.0743 16.2841 21.1469 16.488 21.2188 16.69C21.3736 17.1246 21.5252 17.5505 21.7035 17.9706C22.6284 20.1498 24.0918 22.1076 26.344 23.7218C27.7073 24.6989 29.2746 25.4634 31.0176 26.0286C31.2016 26.0883 31.386 26.1474 31.5704 26.2064C31.6557 26.2338 31.741 26.2611 31.8262 26.2885L31.894 26.2088C31.8672 26.1927 31.8413 26.1755 31.8154 26.1583C31.7597 26.1215 31.704 26.0846 31.6404 26.0581C29.6464 25.23 27.9349 24.1583 26.5072 22.8445C25.7325 22.1316 25.0952 21.3576 24.6132 20.5181C24.5509 20.3974 24.4928 20.3103 24.4347 20.2232L24.4346 20.2231C24.4187 20.1551 24.3958 20.1197 24.373 20.0844C24.2317 19.7321 24.092 19.4091 23.9522 19.0862C23.956 19.0485 23.9609 19.0496 23.9609 19.0496C23.9247 18.9219 23.8873 18.7941 23.8498 18.6661C23.7504 18.3267 23.6506 17.9862 23.574 17.6431C23.4892 17.2633 23.4232 16.8815 23.3572 16.4997C23.3285 16.3339 23.2999 16.1681 23.2697 16.0025C23.2752 15.9444 23.2713 15.9235 23.2675 15.9027C23.2072 15.3597 23.1407 14.848 23.0699 14.3041L23.5578 14.6696C23.5735 14.6995 23.5677 14.701 23.5677 14.701C24.1855 14.9699 24.8009 15.2431 25.4163 15.5162C25.491 15.5398 25.5237 15.5474 25.5563 15.555L25.5564 15.555C26.5996 15.8774 27.6182 16.1813 28.6368 16.4852C28.6646 16.5135 28.6822 16.5118 28.6822 16.5118C28.9997 16.6351 29.307 16.7476 29.6142 16.8602C29.6446 16.8841 29.6445 16.8836 29.6445 16.8836C29.9838 17.0241 30.3239 17.1644 30.664 17.3046L30.6647 17.3049C30.6901 17.3339 30.7062 17.3316 30.7062 17.3316C30.8048 17.3791 30.8945 17.4163 30.9842 17.4535C31.0033 17.4832 31.0223 17.4805 31.0223 17.4805C31.3965 17.6645 31.7585 17.8373 32.1206 18.01C32.1422 18.0401 32.1578 18.0382 32.1578 18.0382C32.2108 18.0672 32.2565 18.0859 32.3021 18.1046C32.3167 18.1325 32.3107 18.1339 32.3107 18.1339C32.4332 18.1845 32.5538 18.2395 32.6745 18.2945L32.6745 18.2945C32.7012 18.318 32.7103 18.3183 32.7103 18.3183C33.0738 18.5062 33.4331 18.6882 33.7924 18.8702L33.7933 18.8707C33.817 18.8979 33.8124 18.8999 33.8124 18.8999C34.0156 19.0046 34.2184 19.1131 34.4211 19.2217C34.4455 19.2482 34.441 19.2501 34.441 19.2501C34.6055 19.3514 34.7695 19.4565 34.9336 19.5617C34.9496 19.5912 34.9422 19.5944 34.9422 19.5944C35.1739 19.7576 35.4008 19.926 35.6276 20.0943L35.6279 20.0945C35.6447 20.1234 35.6352 20.1288 35.6352 20.1288C35.6604 20.1308 35.6791 20.1402 35.6979 20.1497L35.6979 20.1497C35.709 20.1739 35.6951 20.1801 35.6951 20.1801C35.763 20.2145 35.8191 20.2571 35.8751 20.2997C35.8846 20.3289 35.8793 20.3296 35.8793 20.3296C36.044 20.4628 36.2071 20.5996 36.3701 20.7365L36.3707 20.737C36.3825 20.7679 36.3762 20.7683 36.3762 20.7683C36.3962 20.7739 36.416 20.7842 36.4357 20.7944C36.4404 20.8214 36.4358 20.8204 36.4358 20.8204C36.6219 20.9854 36.8063 21.1536 36.9907 21.3218C37.0018 21.3531 36.9963 21.354 36.9963 21.354C37.0241 21.3681 37.05 21.3861 37.0758 21.4041C37.0852 21.4303 37.0886 21.4328 37.0886 21.4328C37.2837 21.6259 37.4782 21.8155 37.6726 22.005C37.6785 22.0375 37.6737 22.0366 37.6737 22.0366C37.7981 22.1536 37.9204 22.2738 38.0426 22.394C38.0555 22.4113 38.0655 22.4228 38.0732 22.4317C38.0822 22.4421 38.0882 22.449 38.0921 22.4574C38.1424 22.5164 38.1853 22.5535 38.2283 22.5906L38.2283 22.5906C38.2313 22.6204 38.2264 22.6203 38.2264 22.6203C38.2525 22.6386 38.276 22.6598 38.2994 22.6811L38.2994 22.6811C38.3089 22.7081 38.3013 22.7086 38.3013 22.7086C38.3196 22.7145 38.3368 22.7259 38.3539 22.7373C38.3615 22.7629 38.3559 22.7628 38.3559 22.7628C38.4162 22.8152 38.4753 22.8717 38.5345 22.9282L38.5346 22.9283C38.5396 22.9593 38.5342 22.9598 38.5342 22.9598C38.578 22.9952 38.6185 23.0338 38.6589 23.0723C38.6685 23.1009 38.6624 23.1024 38.6624 23.1024C38.7653 23.2027 38.8653 23.3071 38.9653 23.4115C38.9715 23.4437 38.9663 23.4437 38.9663 23.4437C39.027 23.4972 39.085 23.5539 39.1429 23.6106C39.1505 23.6406 39.1473 23.641 39.1473 23.641C39.1912 23.6771 39.2334 23.7151 39.2756 23.7532C39.2797 23.7828 39.2744 23.7829 39.2744 23.7829C39.3987 23.9151 39.52 24.0505 39.6413 24.1859C39.6474 24.2183 39.6418 24.2185 39.6418 24.2185C39.6865 24.2542 39.7275 24.2929 39.7684 24.3316C39.775 24.361 39.7696 24.3621 39.7696 24.3621C39.8113 24.3974 39.8513 24.4365 39.8913 24.4757C39.8975 24.5055 39.8903 24.5089 39.8903 24.5089C39.9754 24.5905 40.0558 24.6774 40.1361 24.7643L40.1362 24.7643C40.1428 24.7962 40.1363 24.7985 40.1363 24.7985C40.2206 24.8809 40.3012 24.9678 40.3818 25.0547C40.3885 25.0865 40.3818 25.0886 40.3818 25.0886C40.4528 25.1533 40.5198 25.2224 40.5868 25.2916L40.5868 25.2916C40.6094 25.3291 40.6163 25.3362 40.6231 25.3433C40.6687 25.4111 40.7107 25.4531 40.7526 25.4952C40.7573 25.522 40.7516 25.5235 40.7516 25.5235C40.8764 25.6551 40.9988 25.7908 41.1212 25.9264L41.1213 25.9266C41.1212 25.9602 41.1156 25.9606 41.1156 25.9606C41.2814 26.1403 41.4438 26.3233 41.6062 26.5062C41.6173 26.5379 41.6112 26.5392 41.6112 26.5392C41.6741 26.5919 41.734 26.6487 41.7938 26.7055C41.8068 26.7238 41.8167 26.7352 41.8244 26.7439C41.8316 26.7522 41.8368 26.7581 41.8404 26.7652C41.8797 26.8164 41.9084 26.8474 41.937 26.8785L41.9371 26.8785C41.947 26.908 41.9283 26.9158 41.9283 26.9158C42.2676 27.1508 42.5867 27.3915 42.9059 27.6322L42.906 27.6322C42.9214 27.6619 42.9139 27.666 42.9139 27.666C42.9988 27.7174 43.0786 27.7744 43.1584 27.8315C43.1672 27.862 43.1618 27.8624 43.1618 27.8624C43.3482 28.0129 43.2767 28.1458 43.1071 28.2673C42.723 28.5424 42.2681 28.6489 41.7335 28.5492C40.8319 28.381 40.1138 27.9836 39.4652 27.5183C39.2121 27.3368 38.985 27.1358 38.7579 26.9349C38.6556 26.8444 38.5533 26.754 38.4486 26.6652C38.4379 26.6339 38.4445 26.6317 38.4445 26.6317C38.2376 26.4355 38.0347 26.2349 37.8318 26.0342L37.8314 26.0339C37.8195 26.0028 37.8246 26.0024 37.8246 26.0024C37.8044 25.9961 37.7849 25.9861 37.7654 25.9761C37.7607 25.9496 37.7654 25.9503 37.7654 25.9503C37.6608 25.8652 37.5583 25.777 37.4558 25.6887C37.4388 25.6721 37.4266 25.6622 37.4174 25.6548C37.409 25.648 37.4031 25.6433 37.3984 25.6372Z" fill="#08E816"/>
</svg>
