<svg width="200" height="31" viewBox="0 0 200 31" fill="none" xmlns="http://www.w3.org/2000/svg">
<circle cx="2.5" cy="2.5" r="2.5" fill="#08BAE8" fill-opacity="0.4"/>
<circle cx="15.5" cy="2.5" r="2.5" fill="#08BAE8" fill-opacity="0.4"/>
<circle cx="28.5" cy="2.5" r="2.5" fill="#08BAE8" fill-opacity="0.4"/>
<circle cx="41.5" cy="2.5" r="2.5" fill="#08BAE8" fill-opacity="0.4"/>
<circle cx="54.5" cy="2.5" r="2.5" fill="#08BAE8" fill-opacity="0.4"/>
<circle cx="67.5" cy="2.5" r="2.5" fill="#08BAE8" fill-opacity="0.4"/>
<circle cx="80.5" cy="2.5" r="2.5" fill="#08BAE8" fill-opacity="0.4"/>
<circle cx="93.5" cy="2.5" r="2.5" fill="#08BAE8" fill-opacity="0.4"/>
<circle cx="106.5" cy="2.5" r="2.5" fill="#08BAE8" fill-opacity="0.4"/>
<circle cx="119.5" cy="2.5" r="2.5" fill="#08BAE8" fill-opacity="0.4"/>
<circle cx="132.5" cy="2.5" r="2.5" fill="#08BAE8" fill-opacity="0.4"/>
<circle cx="145.5" cy="2.5" r="2.5" fill="#08BAE8" fill-opacity="0.4"/>
<circle cx="158.5" cy="2.5" r="2.5" fill="#08BAE8" fill-opacity="0.4"/>
<circle cx="171.5" cy="2.5" r="2.5" fill="#08BAE8" fill-opacity="0.4"/>
<circle cx="184.5" cy="2.5" r="2.5" fill="#08BAE8" fill-opacity="0.4"/>
<circle cx="197.5" cy="2.5" r="2.5" fill="#08BAE8" fill-opacity="0.4"/>
<circle cx="2.5" cy="15.5" r="2.5" fill="#08BAE8" fill-opacity="0.4"/>
<circle cx="15.5" cy="15.5" r="2.5" fill="#08BAE8" fill-opacity="0.4"/>
<circle cx="28.5" cy="15.5" r="2.5" fill="#08BAE8" fill-opacity="0.4"/>
<circle cx="41.5" cy="15.5" r="2.5" fill="#08BAE8" fill-opacity="0.4"/>
<circle cx="54.5" cy="15.5" r="2.5" fill="#08BAE8" fill-opacity="0.4"/>
<circle cx="67.5" cy="15.5" r="2.5" fill="#08BAE8" fill-opacity="0.4"/>
<circle cx="80.5" cy="15.5" r="2.5" fill="#08BAE8" fill-opacity="0.4"/>
<circle cx="93.5" cy="15.5" r="2.5" fill="#08BAE8" fill-opacity="0.4"/>
<circle cx="106.5" cy="15.5" r="2.5" fill="#08BAE8" fill-opacity="0.4"/>
<circle cx="119.5" cy="15.5" r="2.5" fill="#08BAE8" fill-opacity="0.4"/>
<circle cx="132.5" cy="15.5" r="2.5" fill="#08BAE8" fill-opacity="0.4"/>
<circle cx="145.5" cy="15.5" r="2.5" fill="#08BAE8" fill-opacity="0.4"/>
<circle cx="158.5" cy="15.5" r="2.5" fill="#08BAE8" fill-opacity="0.4"/>
<circle cx="171.5" cy="15.5" r="2.5" fill="#08BAE8" fill-opacity="0.4"/>
<circle cx="184.5" cy="15.5" r="2.5" fill="#08BAE8" fill-opacity="0.4"/>
<circle cx="197.5" cy="15.5" r="2.5" fill="#08BAE8" fill-opacity="0.4"/>
<circle cx="2.5" cy="28.5" r="2.5" fill="#08BAE8" fill-opacity="0.4"/>
<circle cx="15.5" cy="28.5" r="2.5" fill="#08BAE8" fill-opacity="0.4"/>
<circle cx="28.5" cy="28.5" r="2.5" fill="#08BAE8" fill-opacity="0.4"/>
<circle cx="41.5" cy="28.5" r="2.5" fill="#08BAE8" fill-opacity="0.4"/>
<circle cx="54.5" cy="28.5" r="2.5" fill="#08BAE8" fill-opacity="0.4"/>
<circle cx="67.5" cy="28.5" r="2.5" fill="#08BAE8" fill-opacity="0.4"/>
<circle cx="80.5" cy="28.5" r="2.5" fill="#08BAE8" fill-opacity="0.4"/>
<circle cx="93.5" cy="28.5" r="2.5" fill="#08BAE8" fill-opacity="0.4"/>
<circle cx="106.5" cy="28.5" r="2.5" fill="#08BAE8" fill-opacity="0.4"/>
<circle cx="119.5" cy="28.5" r="2.5" fill="#08BAE8" fill-opacity="0.4"/>
<circle cx="132.5" cy="28.5" r="2.5" fill="#08BAE8" fill-opacity="0.4"/>
<circle cx="145.5" cy="28.5" r="2.5" fill="#08BAE8" fill-opacity="0.4"/>
<circle cx="158.5" cy="28.5" r="2.5" fill="#08BAE8" fill-opacity="0.4"/>
<circle cx="171.5" cy="28.5" r="2.5" fill="#08BAE8" fill-opacity="0.4"/>
<circle cx="184.5" cy="28.5" r="2.5" fill="#08BAE8" fill-opacity="0.4"/>
<circle cx="197.5" cy="28.5" r="2.5" fill="#08BAE8" fill-opacity="0.4"/>
</svg>
